<svg width="783" height="666" viewBox="0 0 783 666" fill="none" xmlns="http://www.w3.org/2000/svg">
<g clip-path="url(#clip0_75:1230)">
<path d="M652.839 548.358H624.105V573.711H652.839V548.358Z" fill="#F0F0F0"/>
<path d="M782.14 304.967C782.152 343.197 771.872 380.725 752.378 413.612C732.885 446.499 704.898 473.531 671.355 491.871C669.453 492.911 667.526 493.925 665.591 494.905C658.412 498.564 651.028 501.804 643.474 504.607C640.466 505.739 637.426 506.793 634.356 507.768C634.06 507.869 633.755 507.97 633.46 508.055C603.387 517.602 571.567 520.335 540.307 516.055C509.047 511.775 479.133 500.59 452.734 483.31C449.193 480.995 445.725 478.578 442.33 476.059C440.412 474.631 438.519 473.177 436.651 471.682C431.369 467.49 426.298 463.047 421.439 458.354C400.78 438.51 384.35 414.691 373.139 388.33C361.928 361.97 356.168 333.613 356.205 304.967C356.205 187.345 451.55 92 569.172 92C686.795 92 782.14 187.345 782.14 304.967Z" fill="#F2F2F2"/>
<path d="M620.031 404.352L615.231 422.505L633.46 508.055C584.46 523.489 531.541 520.768 484.383 500.39L498.614 440.717L499.088 408.349L500.634 301.62L501.023 301.418C501.047 301.403 501.072 301.392 501.099 301.384L537.354 282.766L599.909 281.203L646.584 303.936L646.23 305.263L620.031 404.352Z" fill="#3F3D56"/>
<path d="M645.608 560.311C644.172 558.601 643.128 556.597 642.55 554.439C641.971 552.282 641.873 550.024 642.262 547.825C642.651 545.626 643.517 543.538 644.8 541.71C646.083 539.882 647.751 538.357 649.687 537.243L639.533 483.911L665.574 494.764L671.224 543.745C672.88 547.121 673.24 550.987 672.235 554.611C671.231 558.234 668.932 561.364 665.774 563.406C662.617 565.448 658.82 566.26 655.103 565.69C651.387 565.12 648.008 563.206 645.608 560.311V560.311Z" fill="#9E616A"/>
<path d="M637.175 305.596L643.857 303.421C643.857 303.421 665.053 317.025 663.036 349.913C663.036 349.913 663.83 366.931 663.072 378.257C662.202 391.248 673.863 520.344 673.863 520.344H636.093L619.906 403.437L637.175 305.596Z" fill="#3F3D56"/>
<path d="M615.268 222.848C615.268 231.424 612.724 239.808 607.96 246.939C603.195 254.07 596.422 259.628 588.499 262.91C580.575 266.192 571.856 267.051 563.445 265.378C555.033 263.705 547.306 259.575 541.242 253.51C535.177 247.446 531.047 239.719 529.374 231.308C527.701 222.896 528.56 214.177 531.842 206.253C535.124 198.33 540.682 191.557 547.813 186.793C554.944 182.028 563.328 179.485 571.904 179.485H571.904C577.585 179.47 583.212 180.575 588.466 182.736C593.719 184.896 598.495 188.071 602.522 192.077C606.549 196.084 609.747 200.844 611.934 206.087C614.121 211.329 615.253 216.951 615.268 222.632C615.268 222.704 615.268 222.776 615.268 222.848Z" fill="#9E616A"/>
<path d="M528.685 164.603C533.765 153.68 543.595 155.839 552.193 159.542C563.08 157.127 573.434 149.897 585.165 154.173C596.72 170.979 635.514 166.034 627.261 193.394C627.25 199.95 639.597 196.134 637.442 206.872C643.983 227.536 613.832 266.67 596.524 258.429C600.804 250.584 610.583 232.764 595.752 230.997C563.847 260.683 592.46 174.467 552.372 199.54C539.099 211.688 520.927 176.753 528.685 164.603Z" fill="#2F2E41"/>
<path d="M595.044 512.445L525.824 498.735L543.573 409.121C568.065 418.384 591.138 422.954 612.792 422.83C593.868 450.584 585.271 480.385 595.044 512.445Z" fill="#E4E4E4"/>
<path d="M584.978 517.709L515.758 503.999C510.076 463.401 515.241 432.835 533.507 414.385C557.999 423.648 581.072 428.218 602.726 428.094C591.286 456.601 585.267 486.993 584.978 517.709V517.709Z" fill="#995AEA"/>
<path d="M539.117 492.746C538.842 490.529 538.085 488.4 536.899 486.508C535.713 484.615 534.126 483.006 532.25 481.793C530.375 480.581 528.256 479.794 526.044 479.489C523.831 479.184 521.579 479.367 519.445 480.026L487.298 436.277L477.516 462.739L509.543 500.227C510.888 503.738 513.475 506.634 516.812 508.366C520.15 510.097 524.007 510.544 527.653 509.622C531.298 508.7 534.479 506.473 536.591 503.362C538.704 500.252 539.603 496.474 539.117 492.746Z" fill="#9E616A"/>
<path d="M510.293 303.928L504.47 299.996C504.47 299.996 469.821 303.222 462.69 335.391C462.69 335.391 457.478 354.718 455.084 365.815C453.853 371.522 437.434 426.663 437.434 426.663L493.114 487.51L508.326 464.692L493.114 426.662L510.293 303.928Z" fill="#3F3D56"/>
<path d="M28.7337 198.922H0V224.276H28.7337V198.922Z" fill="#995AEA"/>
<path d="M90.427 300.335H61.6934V325.688H90.427V300.335Z" fill="#995AEA"/>
<path d="M135.218 473.582H106.484V498.935H135.218V473.582Z" fill="#995AEA"/>
<path d="M106.692 140.72C105.84 140.72 105.023 141.058 104.421 141.66C103.819 142.263 103.48 143.079 103.48 143.931C103.48 144.783 103.819 145.6 104.421 146.202C105.023 146.804 105.84 147.143 106.692 147.143H341.169C342.02 147.141 342.835 146.802 343.435 146.2C344.036 145.597 344.373 144.782 344.373 143.931C344.373 143.081 344.036 142.265 343.435 141.663C342.835 141.061 342.02 140.722 341.169 140.72H106.692Z" fill="#E4E4E4"/>
<path d="M106.692 159.988C106.27 159.987 105.852 160.069 105.461 160.229C105.071 160.39 104.716 160.625 104.417 160.923C104.118 161.221 103.88 161.574 103.718 161.964C103.556 162.353 103.472 162.771 103.471 163.193C103.47 163.615 103.552 164.033 103.713 164.423C103.874 164.813 104.11 165.168 104.408 165.467C104.705 165.766 105.059 166.003 105.449 166.165C105.839 166.327 106.256 166.411 106.678 166.411H254.917C255.769 166.411 256.586 166.073 257.188 165.471C257.79 164.868 258.129 164.052 258.129 163.2C258.129 162.348 257.79 161.531 257.188 160.929C256.586 160.327 255.769 159.988 254.917 159.988H106.692Z" fill="#E4E4E4"/>
<path d="M76.2681 371.434C75.4164 371.434 74.5996 371.772 73.9973 372.374C73.395 372.977 73.0566 373.793 73.0566 374.645C73.0566 375.497 73.395 376.314 73.9973 376.916C74.5996 377.518 75.4164 377.857 76.2681 377.857H310.745C311.596 377.855 312.411 377.515 313.012 376.913C313.612 376.311 313.95 375.496 313.95 374.645C313.95 373.795 313.612 372.979 313.012 372.377C312.411 371.775 311.596 371.436 310.745 371.434H76.2681Z" fill="#E4E4E4"/>
<path d="M76.2681 390.703C75.8461 390.701 75.428 390.783 75.0377 390.944C74.6474 391.104 74.2925 391.34 73.9933 391.637C73.6942 391.935 73.4566 392.289 73.2942 392.678C73.1318 393.068 73.0478 393.485 73.0469 393.907C73.046 394.329 73.1283 394.747 73.289 395.138C73.4498 395.528 73.6859 395.882 73.9838 396.181C74.2817 396.48 74.6355 396.717 75.0252 396.879C75.4148 397.042 75.8326 397.125 76.2546 397.126H224.493C225.345 397.126 226.162 396.787 226.764 396.185C227.367 395.583 227.705 394.766 227.705 393.914C227.705 393.062 227.367 392.246 226.764 391.643C226.162 391.041 225.345 390.703 224.493 390.703H76.2681Z" fill="#E4E4E4"/>
<path d="M209.795 536.23C208.944 536.23 208.127 536.568 207.525 537.171C206.922 537.773 206.584 538.59 206.584 539.441C206.584 540.293 206.922 541.11 207.525 541.712C208.127 542.315 208.944 542.653 209.795 542.653H444.273C445.123 542.651 445.938 542.312 446.539 541.71C447.14 541.108 447.477 540.292 447.477 539.441C447.477 538.591 447.14 537.775 446.539 537.173C445.938 536.571 445.123 536.232 444.273 536.23H209.795Z" fill="#E4E4E4"/>
<path d="M209.795 555.499C209.373 555.498 208.955 555.58 208.565 555.74C208.175 555.9 207.82 556.136 207.521 556.434C207.222 556.731 206.984 557.085 206.822 557.475C206.659 557.864 206.575 558.282 206.574 558.704C206.573 559.126 206.656 559.544 206.816 559.934C206.977 560.324 207.213 560.679 207.511 560.978C207.809 561.277 208.163 561.514 208.553 561.676C208.942 561.838 209.36 561.922 209.782 561.922H358.021C358.873 561.922 359.689 561.584 360.292 560.981C360.894 560.379 361.232 559.562 361.232 558.711C361.232 557.859 360.894 557.042 360.292 556.44C359.689 555.837 358.873 555.499 358.021 555.499H209.795Z" fill="#E4E4E4"/>
<path d="M13.5125 211.713C20.3961 210.202 26.908 207.329 32.6652 203.264C38.4225 199.199 43.3088 194.024 47.0369 188.043C49.1535 184.643 50.8593 181.004 52.1187 177.201C52.2139 176.887 52.1831 176.547 52.0329 176.255C51.8827 175.962 51.6247 175.739 51.3134 175.633C51.0021 175.527 50.6617 175.546 50.3641 175.686C50.0666 175.826 49.835 176.076 49.7182 176.384C47.5572 182.739 44.1463 188.597 39.6865 193.613C35.2267 198.63 29.8081 202.703 23.7499 205.593C20.3363 207.224 16.7404 208.443 13.0385 209.223C11.4416 209.56 11.9123 212.051 13.5125 211.713V211.713Z" fill="#3F3D56"/>
<path d="M38.2129 182.057C42.783 179.483 47.3532 176.909 51.9234 174.335C52.1351 174.217 52.7279 173.768 52.9492 173.821C52.7717 173.778 52.9328 173.91 52.9381 174.07C52.9452 174.286 52.9724 174.506 52.9805 174.724C53.0302 176.058 53.0544 177.394 53.0914 178.729L53.3039 186.407C53.3486 188.023 55.8789 188.215 55.8337 186.58L55.5843 177.567C55.5271 175.502 56.0437 170.92 52.697 171.316C51.4894 171.459 50.3727 172.305 49.3427 172.885L45.1699 175.235L37.1224 179.767C35.7053 180.565 36.7896 182.858 38.2129 182.057V182.057Z" fill="#3F3D56"/>
<path d="M76.3203 312.923C69.5066 314.711 63.119 317.843 57.533 322.135C51.9471 326.427 47.2753 331.792 43.7924 337.916C41.8152 341.396 40.2581 345.099 39.1538 348.946C39.0775 349.266 39.1283 349.603 39.2956 349.887C39.4629 350.17 39.7336 350.377 40.0507 350.464C40.3677 350.552 40.7064 350.512 40.9951 350.355C41.2839 350.198 41.5003 349.934 41.5986 349.62C43.5119 343.182 46.6947 337.191 50.9594 332.002C55.2241 326.813 60.4845 322.529 66.4304 319.405C69.7787 317.644 73.325 316.288 76.9943 315.367C78.5753 314.968 77.9054 312.522 76.3203 312.922L76.3203 312.923Z" fill="#3F3D56"/>
<path d="M52.8104 343.549L39.5617 351.717C39.3346 351.857 39.1114 352.01 38.8751 352.134C38.6405 352.258 38.3993 352.254 38.5509 352.403C38.3464 352.202 38.3986 351.457 38.3833 351.23L38.1252 347.398L37.6091 339.735C37.5001 338.115 34.9639 338.103 35.0738 339.735L35.6797 348.731C35.8176 350.779 35.436 355.019 38.572 354.847C39.9683 354.771 41.2986 353.624 42.4428 352.919L46.2282 350.585L54.09 345.738C55.4764 344.883 54.2045 342.689 52.8104 343.549V343.549Z" fill="#3F3D56"/>
<path d="M119.916 485.234C126.414 486.935 132.506 489.92 137.832 494.012C143.158 498.104 147.612 503.221 150.929 509.062C152.799 512.35 154.271 515.85 155.312 519.487C155.41 519.801 155.627 520.064 155.915 520.222C156.204 520.379 156.543 520.418 156.86 520.331C157.177 520.243 157.448 520.036 157.615 519.753C157.782 519.47 157.833 519.133 157.757 518.813C155.757 512.058 152.427 505.772 147.962 500.323C143.498 494.874 137.989 490.372 131.76 487.082C128.22 485.214 124.47 483.773 120.59 482.789C119.008 482.39 118.333 484.834 119.916 485.234V485.234Z" fill="#3F3D56"/>
<path d="M142.82 515.604L150.682 520.451L154.467 522.785C155.614 523.492 156.939 524.637 158.338 524.714C161.473 524.885 161.092 520.646 161.23 518.597L161.836 509.601C161.946 507.972 159.41 507.979 159.301 509.601L158.785 517.264L158.538 520.929C158.519 521.21 158.592 522.036 158.359 522.269C158.525 522.103 158.352 522.182 158.166 522.069C157.895 521.905 157.618 521.75 157.348 521.583L144.099 513.415C142.707 512.556 141.432 514.749 142.82 515.604V515.604Z" fill="#3F3D56"/>
<path d="M57.4682 164.273C64.0026 164.273 69.2997 158.976 69.2997 152.441C69.2997 145.907 64.0026 140.61 57.4682 140.61C50.9339 140.61 45.6367 145.907 45.6367 152.441C45.6367 158.976 50.9339 164.273 57.4682 164.273Z" fill="#995AEA"/>
<path d="M37.185 396.111C43.7194 396.111 49.0165 390.814 49.0165 384.28C49.0165 377.745 43.7194 372.448 37.185 372.448C30.6507 372.448 25.3535 377.745 25.3535 384.28C25.3535 390.814 30.6507 396.111 37.185 396.111Z" fill="#995AEA"/>
<path d="M164.796 560.628C171.331 560.628 176.628 555.331 176.628 548.797C176.628 542.262 171.331 536.965 164.796 536.965C158.262 536.965 152.965 542.262 152.965 548.797C152.965 555.331 158.262 560.628 164.796 560.628Z" fill="#995AEA"/>
</g>
<defs>
<clipPath id="clip0_75:1230">
<rect width="782.14" height="481.711" fill="white" transform="translate(0 92)"/>
</clipPath>
</defs>
</svg>
