<svg width="783" height="666" viewBox="0 0 783 666" fill="none" xmlns="http://www.w3.org/2000/svg">
<g clip-path="url(#clip0_74:1227)">
<path d="M23.3646 575.141C26.6904 576.31 30.2611 576.603 33.7328 575.992C37.2046 575.38 40.4603 573.885 43.1864 571.65C50.129 565.823 52.3083 556.223 54.0767 547.333L59.3151 521.04L48.348 528.592C40.4606 534.023 32.3963 539.628 26.9348 547.495C21.4734 555.361 19.09 566.1 23.4775 574.611" fill="#E4E4E4"/>
<path d="M24.3015 606.975C23.1915 598.889 22.0499 590.7 22.8285 582.527C23.5203 575.269 25.734 568.18 30.2425 562.367C32.6355 559.288 35.5473 556.649 38.847 554.57C39.7077 554.028 40.4989 555.391 39.6427 555.931C33.9335 559.54 29.5177 564.867 27.0318 571.147C24.2862 578.13 23.8454 585.743 24.3223 593.161C24.6086 597.647 25.2146 602.102 25.8261 606.555C25.8753 606.756 25.8457 606.969 25.7433 607.149C25.6408 607.329 25.4734 607.464 25.2751 607.525C25.0735 607.579 24.8585 607.552 24.6769 607.449C24.4953 607.345 24.3617 607.175 24.3051 606.974L24.3015 606.975Z" fill="#F2F2F2"/>
<path d="M491.283 607.666H152.634C144.608 607.657 136.912 604.464 131.237 598.789C125.561 593.113 122.368 585.418 122.359 577.391V86.2749C122.368 78.2483 125.561 70.553 131.237 64.8773C136.912 59.2016 144.608 56.0091 152.634 56H491.283C499.309 56.0091 507.004 59.2016 512.68 64.8773C518.356 70.553 521.548 78.2483 521.557 86.2749V577.391C521.548 585.418 518.356 593.113 512.68 598.789C507.004 604.464 499.309 607.657 491.283 607.666V607.666Z" fill="#3F3D56"/>
<path d="M491.878 588.35H152.038C149.563 588.347 147.191 587.363 145.442 585.613C143.692 583.864 142.708 581.492 142.705 579.017V84.6485C142.708 82.1742 143.692 79.8021 145.442 78.0525C147.191 76.3029 149.563 75.3187 152.038 75.3159H491.878C494.352 75.3187 496.725 76.3029 498.474 78.0525C500.224 79.8021 501.208 82.1742 501.211 84.6485V579.017C501.208 581.492 500.224 583.864 498.474 585.613C496.725 587.363 494.352 588.347 491.878 588.35V588.35Z" fill="white"/>
<path d="M320.669 67.8472C322.092 67.8472 323.245 66.6942 323.245 65.2718C323.245 63.8494 322.092 62.6963 320.669 62.6963C319.247 62.6963 318.094 63.8494 318.094 65.2718C318.094 66.6942 319.247 67.8472 320.669 67.8472Z" fill="white"/>
<path d="M165.203 302.526H454.86V252.88C454.816 247.645 453.727 242.471 451.656 237.663C449.586 232.855 446.576 228.508 442.803 224.879L442.724 224.802C437.551 219.611 420.261 206.437 402.372 207.554C392.923 208.142 384.832 212.696 378.327 221.09C358.076 247.227 331.476 238.404 317.422 230.819C305.036 224.133 292.387 220.995 279.824 221.494C262.229 222.182 237.464 228.664 219.402 255.637C212.504 265.931 197.502 279.904 165.203 288.116L165.203 302.526Z" fill="#E4E4E4"/>
<path d="M471.249 303.681H165.761C165.507 303.681 165.264 303.58 165.085 303.401C164.905 303.221 164.805 302.978 164.805 302.725L165.269 301.661L471.249 301.768C471.502 301.768 471.745 301.869 471.925 302.049C472.104 302.228 472.205 302.471 472.205 302.725C472.205 302.978 472.104 303.221 471.925 303.401C471.745 303.58 471.502 303.681 471.249 303.681H471.249Z" fill="#3F3D56"/>
<path d="M223.869 247.375H221.994V302.335H223.869V247.375Z" fill="#3F3D56"/>
<path d="M280.006 221.706H278.131V302.335H280.006V221.706Z" fill="#3F3D56"/>
<path d="M336.26 238.582H334.385V302.335H336.26V238.582Z" fill="#3F3D56"/>
<path d="M392.512 207.643H390.637V302.335H392.512V207.643Z" fill="#3F3D56"/>
<path d="M448.766 229.206H446.891V302.335H448.766V229.206Z" fill="#3F3D56"/>
<path d="M279.185 228.734C282.353 228.734 284.922 226.166 284.922 222.998C284.922 219.83 282.353 217.262 279.185 217.262C276.017 217.262 273.449 219.83 273.449 222.998C273.449 226.166 276.017 228.734 279.185 228.734Z" fill="#995AEA"/>
<path d="M391.691 213.734C394.859 213.734 397.428 211.166 397.428 207.997C397.428 204.829 394.859 202.261 391.691 202.261C388.523 202.261 385.955 204.829 385.955 207.997C385.955 211.166 388.523 213.734 391.691 213.734Z" fill="#995AEA"/>
<path d="M335.437 244.673C338.605 244.673 341.174 242.104 341.174 238.936C341.174 235.768 338.605 233.2 335.437 233.2C332.269 233.2 329.701 235.768 329.701 238.936C329.701 242.104 332.269 244.673 335.437 244.673Z" fill="#995AEA"/>
<path d="M222.932 253.111C226.1 253.111 228.668 250.542 228.668 247.374C228.668 244.206 226.1 241.638 222.932 241.638C219.764 241.638 217.195 244.206 217.195 247.374C217.195 250.542 219.764 253.111 222.932 253.111Z" fill="#995AEA"/>
<path d="M447.943 234.36C451.111 234.36 453.679 231.791 453.679 228.623C453.679 225.455 451.111 222.887 447.943 222.887C444.775 222.887 442.207 225.455 442.207 228.623C442.207 231.791 444.775 234.36 447.943 234.36Z" fill="#995AEA"/>
<path d="M277.572 502.547V405.441C277.572 404.843 277.81 404.269 278.233 403.847C278.656 403.424 279.229 403.186 279.827 403.186H289.89C290.488 403.186 291.062 403.424 291.485 403.847C291.908 404.269 292.145 404.843 292.145 405.441V405.441V502.8L277.572 502.547Z" fill="#3F3D56"/>
<path d="M310.809 502.851V425.639C310.809 425.041 311.046 424.468 311.469 424.045C311.892 423.622 312.466 423.384 313.064 423.384H323.127C323.725 423.384 324.298 423.622 324.721 424.045C325.144 424.468 325.382 425.041 325.382 425.639V502.685L310.809 502.851Z" fill="#3F3D56"/>
<path d="M377.283 502.507V390.587C377.24 389.944 377.453 389.31 377.876 388.824C378.298 388.337 378.895 388.037 379.538 387.988H389.601C390.243 388.037 390.841 388.337 391.263 388.824C391.685 389.31 391.898 389.944 391.856 390.587V502.8L377.283 502.507Z" fill="#3F3D56"/>
<path d="M244.334 502.659V448.626C244.334 447.933 245.344 447.371 246.589 447.371H256.652C257.898 447.371 258.907 447.934 258.907 448.626V502.8L244.334 502.659Z" fill="#3F3D56"/>
<path d="M344.045 502.469V375.46C344.045 373.831 345.055 372.511 346.3 372.511H356.363C357.608 372.511 358.618 373.831 358.618 375.46V502.8L344.045 502.469Z" fill="#995AEA"/>
<path d="M435.225 503.969H207.628C207.388 503.969 207.159 503.874 206.989 503.705C206.82 503.536 206.725 503.306 206.725 503.066C206.725 502.827 206.82 502.597 206.989 502.428C207.159 502.258 207.388 502.163 207.628 502.163H435.225C435.465 502.163 435.694 502.258 435.864 502.428C436.033 502.597 436.128 502.827 436.128 503.066C436.128 503.306 436.033 503.536 435.864 503.705C435.694 503.874 435.465 503.969 435.225 503.969Z" fill="#3F3D56"/>
<path d="M706.416 597.4L695.758 597.399L690.688 556.288H706.419L706.416 597.4Z" fill="#FFB6B6"/>
<path d="M709.133 607.731L674.766 607.73V607.295C674.766 603.747 676.175 600.345 678.684 597.837C681.192 595.328 684.595 593.919 688.142 593.918H688.143L709.134 593.919L709.133 607.731Z" fill="#2F2E41"/>
<path d="M625.443 597.048L615.146 594.295L620.867 553.269L636.064 557.332L625.443 597.048Z" fill="#FFB6B6"/>
<path d="M625.4 607.731L592.199 598.853L592.312 598.433C593.228 595.006 595.468 592.083 598.54 590.308C601.611 588.532 605.262 588.049 608.689 588.966L608.69 588.966L628.968 594.388L625.4 607.731Z" fill="#2F2E41"/>
<path d="M712.549 367.001L721.476 377.373L709.93 588.15H685.267L672.832 425.965L634.279 592.5L608.639 586.211L631.952 374.69L712.549 367.001Z" fill="#2F2E41"/>
<path d="M637.912 230.921L662.469 218.604L700.232 219.268L732.73 235.897L714.24 328.237L722.227 376.384H722.227C691.357 384.256 659.038 384.522 628.042 377.159L627.795 377.1C627.795 377.1 646.151 311.969 638.337 292.093L637.912 230.921Z" fill="#E4E4E4"/>
<path d="M708.953 181.706C708.926 174.336 705.976 167.278 700.75 162.081C695.524 156.884 688.45 153.973 681.08 153.987C673.71 154.001 666.646 156.938 661.439 162.154C656.233 167.37 653.309 174.439 653.309 181.809C653.309 189.179 656.233 196.248 661.439 201.465C666.646 206.681 673.71 209.618 681.08 209.632C688.45 209.645 695.524 206.734 700.75 201.537C705.976 196.34 708.926 189.282 708.953 181.912C708.953 181.844 708.953 181.775 708.953 181.706Z" fill="#FFB6B6"/>
<path d="M668.672 165.809C670.113 164.452 672.011 163.687 673.99 163.663C676.962 163.567 681.416 164.622 683.312 167.039C684.835 168.981 684.908 171.653 684.914 174.121L684.93 180.934C684.935 182.949 684.959 185.051 685.875 186.846C686.79 188.641 688.892 190.005 690.813 189.393C693.09 188.667 694.092 185.639 696.42 185.095C698.168 184.686 699.964 185.964 700.729 187.589C701.374 189.273 701.588 191.092 701.351 192.88C701.13 196.447 696.014 197.862 695.29 201.361C694.871 203.386 693.404 207.424 695.29 206.578C703.984 205.708 707.8 200.63 711.779 195.85L720.753 185.069C721.778 183.999 722.566 182.724 723.065 181.329C723.287 180.351 723.367 179.346 723.302 178.346C723.253 175.666 723.18 172.987 723.084 170.309C722.999 167.969 722.41 165.017 720.119 164.536C718.927 164.286 717.349 164.722 716.719 163.679C716.483 163.157 716.445 162.567 716.611 162.018C717.117 159.344 717.971 156.546 717.091 153.971C715.763 150.086 711.192 148.492 707.153 147.759C703.114 147.026 698.579 146.396 696.044 143.167C695.365 142.095 694.629 141.06 693.839 140.068C692.676 139.01 691.247 138.29 689.706 137.983C684.691 136.714 679.395 137.184 674.682 139.316C672.729 140.208 670.766 141.408 668.623 141.273C666.396 141.132 664.494 139.565 662.296 139.183C658.746 138.568 655.352 141.228 653.602 144.378C651.434 148.281 651.236 153.626 654.298 156.875C655.826 158.496 658.106 159.609 658.74 161.744C658.999 162.614 658.938 163.55 659.167 164.427C659.433 165.3 659.94 166.081 660.631 166.678C661.321 167.276 662.167 167.666 663.069 167.803C665.24 168.157 667.077 167.162 668.672 165.809Z" fill="#2F2E41"/>
<path d="M634.523 298.246C635.051 299.604 635.871 300.829 636.924 301.836C637.977 302.842 639.238 303.606 640.618 304.072C641.998 304.538 643.464 304.696 644.912 304.535C646.36 304.374 647.755 303.897 648.998 303.138L698.86 329.497L700.475 317.35L652.024 288.78C650.611 286.775 648.512 285.358 646.124 284.798C643.736 284.237 641.226 284.572 639.069 285.739C636.911 286.906 635.257 288.824 634.419 291.129C633.581 293.434 633.618 295.967 634.523 298.246V298.246Z" fill="#FFB6B6"/>
<path d="M700.968 300.347C700.155 301.556 699.087 302.572 697.839 303.324C696.592 304.075 695.194 304.544 693.745 304.697C692.297 304.851 690.832 304.684 689.454 304.21C688.077 303.736 686.82 302.965 685.773 301.953L631.352 316.763L631.825 301.341L685.961 287.28C687.779 285.633 690.137 284.71 692.59 284.686C695.042 284.661 697.419 285.537 699.268 287.148C701.118 288.759 702.313 290.992 702.626 293.425C702.939 295.857 702.349 298.32 700.968 300.347V300.347Z" fill="#FFB6B6"/>
<path d="M722.119 236.561L732.73 235.896C732.73 235.896 745.153 252.289 738.262 270.077C738.262 270.077 739.456 333.976 711.94 331.351C684.424 328.727 675.73 328.727 675.73 328.727L683.99 305.688L702.467 299.983C702.467 299.983 696.772 274.863 707.551 264.411L722.119 236.561Z" fill="#E4E4E4"/>
<path d="M645.496 236L643.996 228.312C643.996 228.312 621.879 227.793 617.506 261.307C617.506 261.307 597.617 311.464 617.112 317.922C636.607 324.38 658.05 317.922 658.05 317.922L656.435 295.803L634.985 291.425C634.985 291.425 646.066 277.09 640.032 264.655L645.496 236Z" fill="#E4E4E4"/>
<path d="M781.237 608.737H0.903164C0.66363 608.737 0.433906 608.641 0.26453 608.472C0.0951538 608.303 0 608.073 0 607.833C0 607.594 0.0951538 607.364 0.26453 607.195C0.433906 607.025 0.66363 606.93 0.903164 606.93H781.237C781.476 606.93 781.706 607.025 781.876 607.195C782.045 607.364 782.14 607.594 782.14 607.833C782.14 608.073 782.045 608.303 781.876 608.472C781.706 608.641 781.476 608.737 781.237 608.737Z" fill="#CACACA"/>
</g>
<defs>
<clipPath id="clip0_74:1227">
<rect width="782.14" height="552.736" fill="white" transform="translate(0 56)"/>
</clipPath>
</defs>
</svg>
