<svg width="783" height="666" viewBox="0 0 783 666" fill="none" xmlns="http://www.w3.org/2000/svg">
<g clip-path="url(#clip0_74:1152)">
<path d="M661.268 627.377C657.551 628.684 653.56 629.011 649.679 628.327C645.799 627.644 642.16 625.973 639.113 623.474C631.353 616.961 628.917 606.232 626.941 596.295L621.086 566.907L633.344 575.349C642.16 581.419 651.173 587.684 657.278 596.476C663.382 605.269 666.046 617.271 661.142 626.785" fill="#E6E6E6"/>
<path d="M660.221 662.957C661.461 653.919 662.737 644.766 661.867 635.632C661.094 627.519 658.62 619.596 653.581 613.099C650.906 609.657 647.651 606.708 643.963 604.384C643.001 603.779 642.117 605.302 643.074 605.906C649.455 609.938 654.391 615.894 657.169 622.912C660.238 630.718 660.731 639.226 660.198 647.517C659.878 652.531 659.2 657.511 658.517 662.488C658.462 662.713 658.495 662.951 658.609 663.152C658.724 663.354 658.911 663.504 659.133 663.572C659.358 663.633 659.598 663.602 659.801 663.487C660.004 663.372 660.154 663.181 660.217 662.956L660.221 662.957Z" fill="#F2F2F2"/>
<path d="M615.794 512.848H102.945V0H615.794V512.848Z" fill="white"/>
<path d="M615.794 512.848H102.945V0H615.794V512.848ZM110.523 505.271H608.216V7.5773H110.523V505.271Z" fill="#E5E5E5"/>
<path d="M524.94 80.2354H302.855V87.1534H524.94V80.2354Z" fill="#E5E5E5"/>
<path d="M524.94 98.2224H302.855V105.14H524.94V98.2224Z" fill="#E5E5E5"/>
<path d="M524.94 116.209H302.855V123.127H524.94V116.209Z" fill="#E5E5E5"/>
<path d="M524.94 234.686H302.855V241.604H524.94V234.686Z" fill="#E5E5E5"/>
<path d="M524.94 252.672H302.855V259.59H524.94V252.672Z" fill="#E5E5E5"/>
<path d="M524.94 270.659H302.855V277.577H524.94V270.659Z" fill="#E5E5E5"/>
<path d="M524.94 389.135H302.855V396.054H524.94V389.135Z" fill="#E5E5E5"/>
<path d="M524.94 407.123H302.855V414.041H524.94V407.123Z" fill="#E5E5E5"/>
<path d="M524.94 425.109H302.855V432.027H524.94V425.109Z" fill="#E5E5E5"/>
<path d="M213.95 135.355C210.156 133.355 206.196 131.689 202.114 130.374L201.594 124.616L180.485 122.342L177.802 129.701L170.227 132.544C169.955 132.647 169.697 132.781 169.458 132.944H169.45C169.027 133.23 168.667 133.599 168.391 134.029C168.116 134.458 167.931 134.939 167.848 135.443C167.767 135.943 167.786 136.455 167.904 136.948L168.305 138.59C168.881 138.934 169.474 139.263 170.066 139.575L170.443 139.767C171.308 140.216 172.189 140.64 173.093 141.032C173.278 141.112 173.478 141.193 173.662 141.273C173.678 141.281 173.686 141.281 173.702 141.289C174.127 141.465 174.551 141.633 174.983 141.793C176.404 142.336 177.853 142.801 179.323 143.187C183.077 144.187 186.946 144.693 190.831 144.692C192.248 144.692 193.65 144.628 195.035 144.492C198.201 144.2 201.326 143.569 204.357 142.61C204.364 142.61 204.373 142.602 204.38 142.602C206.295 141.992 208.165 141.251 209.978 140.384C209.986 140.376 210.002 140.376 210.01 140.368C210.419 140.176 210.811 139.967 211.211 139.767L211.403 139.671C211.724 139.503 212.044 139.335 212.365 139.159C213.165 138.718 213.95 138.254 214.727 137.757C214.943 137.629 215.151 137.493 215.368 137.349C215.672 137.149 215.976 136.94 216.272 136.724C215.528 136.244 214.751 135.787 213.95 135.355Z" fill="#3F3D56"/>
<path d="M174.333 138.902L173.012 132.936H169.56C169.526 132.937 169.491 132.939 169.456 132.944H169.448C168.208 133.049 167.013 133.462 165.973 134.145C165.267 134.596 164.64 135.159 164.115 135.811C165.14 136.588 166.205 137.309 167.302 137.997L167.35 138.021C167.662 138.214 167.983 138.406 168.303 138.59C168.88 138.934 169.473 139.263 170.065 139.575L170.441 139.767C171.306 140.216 172.187 140.64 173.092 141.032C173.276 141.112 173.477 141.192 173.661 141.273C173.677 141.281 173.685 141.281 173.701 141.289C174.125 141.465 174.549 141.633 174.982 141.793L174.333 138.902Z" fill="#3F3D56"/>
<path d="M190.211 118.702C198.607 118.702 205.413 111.895 205.413 103.499C205.413 95.1024 198.607 88.2959 190.211 88.2959C181.814 88.2959 175.008 95.1024 175.008 103.499C175.008 111.895 181.814 118.702 190.211 118.702Z" fill="#FFB8B8"/>
<path d="M180.003 96.0938C181.576 97.9562 184.24 98.4818 186.697 98.6973C192.441 99.0146 198.201 98.5442 203.818 97.2992C204.166 100.672 203.217 104.309 205.204 107.084C206.135 103.725 206.676 100.27 206.817 96.7865C206.966 95.2921 206.771 93.7836 206.247 92.3761C205.967 91.6707 205.495 91.0581 204.884 90.6077C204.273 90.1574 203.548 89.8875 202.792 89.8286C203.924 88.9694 205.251 88.4022 206.655 88.1771L201.827 85.7512L203.067 84.4785L194.328 83.9437L196.859 82.3356C193.049 81.8122 189.195 81.6905 185.36 81.9727C183.568 81.9735 181.809 82.4622 180.274 83.3864C178.831 84.4182 177.997 86.4691 178.893 87.9841C177.771 88.1682 176.715 88.6357 175.825 89.3421C174.935 90.0485 174.24 90.9705 173.805 92.0208C173.256 93.6902 173.124 95.4686 173.419 97.201C173.748 99.9805 174.394 102.713 175.344 105.346L180.003 96.0938Z" fill="#2F2E41"/>
<path d="M232.961 87.0184C230.828 80.8906 227.384 75.3018 222.869 70.6418C218.354 65.9818 212.877 62.3627 206.82 60.037C200.762 57.7112 194.271 56.7347 187.797 57.1756C181.324 57.6166 175.024 59.4643 169.338 62.5899C163.652 65.7155 158.716 70.0438 154.875 75.273C151.034 80.5022 148.379 86.5063 147.097 92.8668C145.814 99.2272 145.935 105.791 147.45 112.1C148.965 118.409 151.837 124.312 155.868 129.397C156.268 129.901 156.685 130.406 157.11 130.894C157.142 130.926 157.165 130.958 157.198 130.99C158.241 132.193 159.351 133.337 160.521 134.418C160.825 134.698 161.146 134.986 161.466 135.259C162.074 135.803 162.699 136.324 163.348 136.82C163.604 137.02 163.852 137.22 164.116 137.413C165.141 138.189 166.206 138.91 167.304 139.599L167.352 139.623C167.664 139.815 167.984 140.007 168.305 140.191C168.881 140.536 169.474 140.864 170.066 141.176L170.443 141.369C171.308 141.817 172.189 142.241 173.093 142.634C173.278 142.714 173.478 142.794 173.662 142.874C173.678 142.882 173.686 142.882 173.702 142.89C174.126 143.066 174.551 143.235 174.983 143.395C176.404 143.937 177.853 144.402 179.323 144.788C183.077 145.789 186.946 146.295 190.831 146.294C192.248 146.294 193.65 146.229 195.035 146.093C198.201 145.801 201.326 145.17 204.357 144.211C204.364 144.211 204.373 144.203 204.38 144.203C206.295 143.594 208.165 142.852 209.978 141.985C209.986 141.977 210.002 141.977 210.01 141.969C210.419 141.777 210.811 141.569 211.211 141.369L211.403 141.272C211.724 141.104 212.044 140.936 212.365 140.76C213.165 140.32 213.95 139.855 214.727 139.359C214.943 139.23 215.151 139.094 215.368 138.95C215.672 138.75 215.976 138.542 216.272 138.326C216.665 138.053 217.057 137.773 217.442 137.485C217.562 137.397 217.69 137.309 217.81 137.213C225.312 131.518 230.819 123.594 233.541 114.577C236.263 105.56 236.06 95.913 232.961 87.0184V87.0184ZM216.337 135.267C216.072 135.475 215.8 135.675 215.528 135.859C215.263 136.059 214.999 136.252 214.727 136.428C214.494 136.596 214.262 136.756 214.022 136.908L213.95 136.956C213.774 137.076 213.598 137.188 213.422 137.301C212.757 137.717 212.084 138.117 211.403 138.502L211.187 138.622C210.883 138.79 210.579 138.95 210.275 139.11C210.234 139.134 210.186 139.15 210.146 139.174L210.098 139.198C209.714 139.399 209.321 139.591 208.929 139.775C207.415 140.504 205.856 141.135 204.26 141.665C204.052 141.737 203.844 141.809 203.636 141.873C200.767 142.786 197.809 143.387 194.811 143.667C193.498 143.787 192.168 143.851 190.831 143.851C187.156 143.859 183.497 143.379 179.948 142.426C178.127 141.95 176.342 141.346 174.607 140.616C174.519 140.576 174.423 140.544 174.335 140.504C174.239 140.464 174.15 140.432 174.062 140.392C173.966 140.352 173.878 140.312 173.782 140.264C173.029 139.935 172.284 139.575 171.556 139.198L171.204 139.014C170.314 138.55 169.442 138.053 168.593 137.525C168.345 137.373 168.088 137.213 167.848 137.044C167.784 137.004 167.728 136.964 167.664 136.924C167.095 136.548 166.527 136.155 165.974 135.747C165.598 135.467 165.222 135.186 164.853 134.898C164.237 134.434 163.644 133.937 163.067 133.425C162.763 133.168 162.467 132.888 162.179 132.624C161.043 131.576 159.968 130.463 158.959 129.293C158.623 128.908 158.295 128.524 157.982 128.123C157.911 128.044 157.844 127.961 157.782 127.875C152.579 121.31 149.449 113.343 148.792 104.992C148.135 96.6401 149.981 88.2822 154.093 80.9837C158.206 73.6853 164.399 67.7771 171.882 64.0126C179.366 60.2481 187.802 58.798 196.113 59.8471C204.424 60.8963 212.235 64.3972 218.548 69.9033C224.862 75.4094 229.393 82.6713 231.562 90.7627C233.732 98.8541 233.442 107.408 230.731 115.335C228.019 123.261 223.008 130.2 216.336 135.267L216.337 135.267Z" fill="#3F3D56"/>
<path d="M232.961 241.469C230.828 235.341 227.384 229.752 222.869 225.092C218.354 220.432 212.877 216.813 206.82 214.487C200.762 212.161 194.271 211.185 187.797 211.626C181.324 212.067 175.024 213.914 169.338 217.04C163.652 220.166 158.716 224.494 154.875 229.723C151.034 234.952 148.379 240.956 147.097 247.317C145.814 253.677 145.935 260.241 147.45 266.55C148.965 272.859 151.837 278.762 155.868 283.847C156.268 284.351 156.685 284.856 157.109 285.344C157.141 285.376 157.165 285.408 157.197 285.44C158.241 286.643 159.351 287.787 160.521 288.868C160.825 289.148 161.145 289.436 161.465 289.709C162.074 290.253 162.699 290.774 163.347 291.27C164.614 292.268 165.935 293.196 167.303 294.049L167.351 294.073C168.24 294.626 169.145 295.138 170.066 295.627L170.442 295.819C171.307 296.267 172.188 296.692 173.093 297.084C173.277 297.164 173.477 297.244 173.662 297.324C173.678 297.332 173.686 297.332 173.702 297.34C175.53 298.101 177.408 298.735 179.323 299.238C183.077 300.239 186.946 300.745 190.831 300.744C192.248 300.744 193.649 300.68 195.035 300.543C198.2 300.251 201.325 299.62 204.356 298.662C204.364 298.662 204.372 298.654 204.38 298.654C206.295 298.044 208.165 297.302 209.978 296.435C209.986 296.427 210.002 296.427 210.01 296.419C210.418 296.227 210.811 296.019 211.211 295.819L211.403 295.723C211.724 295.554 212.044 295.386 212.364 295.21C213.165 294.77 213.95 294.305 214.727 293.809C214.943 293.68 215.151 293.544 215.367 293.4C216.072 292.936 216.769 292.439 217.441 291.935C217.561 291.847 217.689 291.759 217.81 291.663C225.312 285.968 230.819 278.044 233.54 269.027C236.262 260.01 236.059 250.363 232.961 241.469V241.469Z" fill="white"/>
<path d="M205.551 274.521C209.244 274.521 212.237 271.528 212.237 267.835C212.237 264.143 209.244 261.149 205.551 261.149C201.859 261.149 198.865 264.143 198.865 267.835C198.865 271.528 201.859 274.521 205.551 274.521Z" fill="#2F2E41"/>
<path d="M207.415 261.334C208.572 261.334 209.709 261.634 210.716 262.205C211.722 262.777 212.563 263.599 213.156 264.593C213.749 265.586 214.074 266.717 214.1 267.874C214.125 269.031 213.85 270.175 213.301 271.193C213.88 270.468 214.302 269.63 214.54 268.733C214.778 267.835 214.826 266.898 214.682 265.981C214.537 265.064 214.203 264.187 213.701 263.406C213.199 262.625 212.54 261.958 211.766 261.445C210.992 260.933 210.119 260.588 209.204 260.432C208.289 260.276 207.352 260.312 206.451 260.538C205.551 260.764 204.707 261.175 203.975 261.745C203.242 262.315 202.636 263.031 202.195 263.848C202.82 263.063 203.614 262.43 204.518 261.994C205.422 261.559 206.412 261.333 207.416 261.334L207.415 261.334Z" fill="#2F2E41"/>
<path d="M193.058 267.821C203.905 267.821 212.699 259.028 212.699 248.181C212.699 237.334 203.905 228.54 193.058 228.54C182.211 228.54 173.418 237.334 173.418 248.181C173.418 259.028 182.211 267.821 193.058 267.821Z" fill="#2F2E41"/>
<path d="M177.643 235.995C181.028 232.189 185.758 229.846 190.837 229.462C195.915 229.078 200.944 230.682 204.862 233.935C204.702 233.782 204.542 233.628 204.376 233.48C200.497 230.004 195.395 228.212 190.194 228.498C184.993 228.784 180.118 231.124 176.643 235.004C173.167 238.884 171.375 243.985 171.66 249.186C171.946 254.387 174.286 259.262 178.166 262.738C178.203 262.771 178.241 262.804 178.278 262.837C178.445 262.986 178.616 263.126 178.787 263.267C175.097 259.757 172.915 254.951 172.702 249.862C172.489 244.774 174.261 239.801 177.644 235.995L177.643 235.995Z" fill="#2F2E41"/>
<path d="M192.892 267.654C199.878 267.654 205.541 261.991 205.541 255.005C205.541 248.019 199.878 242.355 192.892 242.355C185.906 242.355 180.242 248.019 180.242 255.005C180.242 261.991 185.906 267.654 192.892 267.654Z" fill="#A0616A"/>
<path d="M215.528 287.963V292.207C214.751 292.704 213.966 293.168 213.165 293.609C212.845 293.785 212.525 293.953 212.204 294.121L212.012 294.217C211.612 294.417 211.219 294.626 210.811 294.818C210.803 294.826 210.787 294.826 210.779 294.834C208.966 295.701 207.096 296.442 205.181 297.052C205.173 297.052 205.165 297.06 205.157 297.06C202.126 298.019 199.001 298.65 195.836 298.942C194.45 299.078 193.049 299.142 191.632 299.142C187.747 299.143 183.878 298.637 180.124 297.637C178.209 297.133 176.331 296.499 174.503 295.739C174.487 295.731 174.479 295.731 174.462 295.723C174.278 295.643 174.078 295.563 173.894 295.482C172.989 295.09 172.108 294.666 171.243 294.217L170.867 294.025C169.946 293.536 169.041 293.024 168.152 292.471L168.104 292.447C166.736 291.595 165.415 290.667 164.148 289.669C163.5 289.172 162.875 288.652 162.266 288.107C161.946 287.835 161.626 287.547 161.322 287.266C160.152 286.186 159.042 285.041 157.998 283.839C158.137 283.005 158.34 282.183 158.607 281.38L158.615 281.372C158.663 281.236 158.719 281.102 158.783 280.972C158.827 280.857 158.878 280.745 158.935 280.636C160.368 277.953 162.963 277.288 166.182 277.144C168 277.064 170.01 277.152 172.132 277.128C173.253 277.12 174.414 277.08 175.576 276.976C182.903 276.311 181.574 271.987 181.902 269.657C182.23 267.398 184.265 269.352 184.401 269.48L184.408 269.489C188.555 271.429 193.142 272.233 197.702 271.819C198.486 271.723 199.271 271.667 200.056 271.643C202.122 271.619 201.674 272.211 200.961 272.7C200.615 272.927 200.254 273.131 199.88 273.308C199.88 273.308 199.552 275.31 199.215 278.305C198.895 281.172 204.388 282.518 204.845 282.622C204.854 282.628 204.866 282.631 204.877 282.63C206.883 282.109 208.995 282.165 210.971 282.79H210.979C212.108 283.205 213.116 283.896 213.91 284.799C214.704 285.702 215.26 286.79 215.528 287.963V287.963Z" fill="#995AEA"/>
<path d="M174.582 293.112C174.582 293.705 174.566 294.273 174.542 294.81C174.534 295.13 174.518 295.443 174.502 295.739C174.486 295.731 174.478 295.731 174.462 295.723C174.278 295.643 174.078 295.563 173.894 295.483C172.989 295.09 172.108 294.666 171.243 294.217L170.867 294.025C169.945 293.537 169.041 293.024 168.152 292.472C168.176 292.191 168.216 291.911 168.256 291.631C168.344 291.014 168.416 290.39 168.464 289.773C168.779 285.441 167.994 281.1 166.182 277.152V277.144C166.022 276.824 165.926 276.648 165.926 276.648C165.926 276.648 168.256 274.646 171.579 276.648C171.791 276.773 171.979 276.935 172.132 277.128C174.134 279.491 174.678 287.435 174.582 293.112Z" fill="#2F2E41"/>
<path d="M210.947 292.023C210.915 292.92 210.867 293.857 210.811 294.81V294.818C210.803 294.826 210.787 294.826 210.779 294.834C208.966 295.701 207.096 296.442 205.181 297.052C205.173 297.052 205.165 297.06 205.157 297.06L205.069 294.81L205.061 294.514L204.637 283.559C204.625 283.311 204.664 283.063 204.751 282.83C204.838 282.598 204.972 282.385 205.143 282.206C205.314 282.026 205.52 281.883 205.749 281.785C205.977 281.688 206.222 281.637 206.471 281.637H210.53C210.731 281.637 210.875 282.045 210.971 282.782V282.79C211.168 285.865 211.16 288.949 210.947 292.023V292.023Z" fill="#2F2E41"/>
<path d="M182.072 239.193V251.846H185.002L188.729 247.851L188.23 251.846H201.179L200.379 247.851L201.98 251.846H204.045V239.193H182.072Z" fill="#2F2E41"/>
<path d="M180.077 254.173C180.628 254.173 181.075 253.353 181.075 252.342C181.075 251.331 180.628 250.511 180.077 250.511C179.525 250.511 179.078 251.331 179.078 252.342C179.078 253.353 179.525 254.173 180.077 254.173Z" fill="#A0616A"/>
<path d="M205.708 254.173C206.259 254.173 206.706 253.353 206.706 252.342C206.706 251.331 206.259 250.511 205.708 250.511C205.156 250.511 204.709 251.331 204.709 252.342C204.709 253.353 205.156 254.173 205.708 254.173Z" fill="#A0616A"/>
<path d="M218.241 290.333C217.568 290.838 216.871 291.334 216.167 291.799C215.951 291.943 215.743 292.079 215.526 292.207C214.749 292.704 213.965 293.168 213.164 293.609C212.844 293.785 212.523 293.953 212.203 294.121V285.296C212.203 285.296 213.484 286.321 215.526 288.027C215.782 288.243 216.047 288.468 216.327 288.708C216.92 289.204 217.56 289.749 218.241 290.333Z" fill="#995AEA"/>
<path d="M232.961 241.469C230.828 235.341 227.384 229.752 222.869 225.092C218.354 220.432 212.877 216.813 206.82 214.487C200.762 212.161 194.271 211.185 187.797 211.626C181.324 212.067 175.024 213.914 169.338 217.04C163.652 220.166 158.716 224.494 154.875 229.723C151.034 234.952 148.379 240.956 147.097 247.317C145.814 253.677 145.935 260.241 147.45 266.55C148.965 272.859 151.837 278.762 155.868 283.847C156.268 284.351 156.685 284.856 157.109 285.344C157.141 285.376 157.165 285.408 157.197 285.44C158.241 286.643 159.351 287.787 160.521 288.868C160.825 289.148 161.145 289.436 161.465 289.709C162.074 290.253 162.699 290.774 163.347 291.27C164.614 292.268 165.935 293.196 167.303 294.049L167.351 294.073C168.24 294.626 169.145 295.138 170.066 295.627L170.442 295.819C171.307 296.267 172.188 296.692 173.093 297.084C173.277 297.164 173.477 297.244 173.662 297.324C173.678 297.332 173.686 297.332 173.702 297.34C175.53 298.101 177.408 298.735 179.323 299.238C183.077 300.239 186.946 300.745 190.831 300.744C192.248 300.744 193.649 300.68 195.035 300.543C198.2 300.251 201.325 299.62 204.356 298.662C204.364 298.662 204.372 298.654 204.38 298.654C206.295 298.044 208.165 297.302 209.978 296.435C209.986 296.427 210.002 296.427 210.01 296.419C210.418 296.227 210.811 296.019 211.211 295.819L211.403 295.723C211.724 295.554 212.044 295.386 212.364 295.21C213.165 294.77 213.95 294.305 214.727 293.809C214.943 293.68 215.151 293.544 215.367 293.4C216.072 292.936 216.769 292.439 217.441 291.935C217.561 291.847 217.689 291.759 217.81 291.663C225.312 285.968 230.819 278.044 233.54 269.027C236.262 260.01 236.059 250.363 232.961 241.469V241.469ZM216.336 289.717C216.072 289.925 215.8 290.125 215.527 290.309C215.263 290.509 214.999 290.702 214.727 290.878C214.494 291.046 214.262 291.206 214.022 291.358C213.821 291.494 213.621 291.623 213.421 291.751C212.757 292.167 212.084 292.567 211.403 292.952L211.187 293.072C210.883 293.24 210.578 293.4 210.274 293.56C210.234 293.584 210.186 293.6 210.146 293.625L210.098 293.649C209.714 293.849 209.321 294.041 208.929 294.225C207.415 294.954 205.855 295.586 204.26 296.115C204.052 296.187 203.844 296.259 203.636 296.323C200.767 297.236 197.808 297.837 194.811 298.117C193.497 298.237 192.168 298.301 190.831 298.301C187.156 298.309 183.497 297.829 179.948 296.876C178.127 296.4 176.342 295.796 174.607 295.066C174.422 294.994 174.238 294.914 174.062 294.842C173.966 294.802 173.878 294.762 173.782 294.714C173.029 294.385 172.284 294.025 171.556 293.649L171.203 293.464C170.314 293 169.441 292.503 168.592 291.975C168.28 291.783 167.968 291.582 167.664 291.374C166.703 290.742 165.766 290.061 164.853 289.348C164.236 288.884 163.644 288.387 163.067 287.875C162.763 287.619 162.466 287.338 162.178 287.074C161.043 286.025 159.968 284.913 158.959 283.743C158.623 283.358 158.294 282.974 157.982 282.573C157.911 282.494 157.844 282.411 157.782 282.325C152.579 275.76 149.449 267.793 148.792 259.442C148.135 251.09 149.98 242.732 154.093 235.434C158.205 228.135 164.398 222.227 171.882 218.463C179.366 214.698 187.801 213.248 196.113 214.297C204.424 215.346 212.234 218.847 218.548 224.353C224.862 229.86 229.392 237.121 231.562 245.213C233.731 253.304 233.442 261.859 230.73 269.785C228.019 277.711 223.007 284.65 216.336 289.717V289.717Z" fill="#3F3D56"/>
<path d="M191.082 430.633C200.735 430.633 208.561 422.808 208.561 413.155C208.561 403.501 200.735 395.676 191.082 395.676C181.429 395.676 173.604 403.501 173.604 413.155C173.604 422.808 181.429 430.633 191.082 430.633Z" fill="#2F2E41"/>
<path d="M177.44 403.73C180.264 400.906 180.837 396.899 178.718 394.781C176.6 392.662 172.593 393.235 169.768 396.059C166.944 398.884 166.372 402.891 168.49 405.009C170.608 407.127 174.615 406.555 177.44 403.73Z" fill="#2F2E41"/>
<path d="M209.3 398.18C210.477 395.425 208.453 391.92 204.78 390.351C201.107 388.781 197.175 389.743 195.998 392.498C194.821 395.253 196.845 398.758 200.518 400.327C204.192 401.896 208.123 400.935 209.3 398.18Z" fill="#2F2E41"/>
<path d="M211.989 447.059L209.929 443.818C209.056 441.866 207.444 440.34 205.447 439.574C203.45 438.808 201.231 438.864 199.276 439.731C197.321 440.598 195.789 442.204 195.016 444.198C194.242 446.192 194.291 448.411 195.15 450.37L195.736 452.469L196.402 454.852C199.1 454.511 201.762 453.93 204.357 453.115C204.365 453.114 204.372 453.111 204.377 453.105C206.295 452.498 208.167 451.756 209.98 450.884C209.99 450.874 210 450.874 210.01 450.864C210.414 450.672 210.808 450.471 211.211 450.269C211.277 450.239 211.341 450.205 211.403 450.168C211.726 450.006 212.049 449.835 212.362 449.663C212.685 449.491 212.998 449.31 213.301 449.118L211.989 447.059Z" fill="#CACACA"/>
<path d="M191.637 432.161C199.829 432.161 206.471 425.52 206.471 417.327C206.471 409.135 199.829 402.493 191.637 402.493C183.444 402.493 176.803 409.135 176.803 417.327C176.803 425.52 183.444 432.161 191.637 432.161Z" fill="#FFB6B6"/>
<path d="M213.06 446.422C211.423 443.701 209.392 441.238 207.033 439.114C205.417 437.67 203.325 436.872 201.158 436.873H180.262C179.057 436.872 177.866 437.119 176.761 437.597C175.656 438.075 174.661 438.775 173.837 439.653C173.013 440.531 172.377 441.568 171.97 442.701C171.563 443.835 171.392 445.039 171.469 446.241C171.515 446.919 171.637 447.589 171.833 448.239C171.982 448.711 172.167 449.17 172.388 449.612L173.417 451.672C173.498 451.702 173.579 451.742 173.66 451.773C173.68 451.783 173.69 451.783 173.7 451.793C174.124 451.964 174.548 452.136 174.982 452.298C176.402 452.841 177.852 453.306 179.323 453.691C181.691 454.327 184.109 454.762 186.55 454.993C187.974 455.124 189.397 455.195 190.831 455.195C192.254 455.195 193.647 455.124 195.04 454.993C195.495 454.953 195.949 454.902 196.403 454.852C199.101 454.511 201.763 453.93 204.358 453.115C204.365 453.114 204.373 453.111 204.378 453.105C206.296 452.498 208.168 451.756 209.981 450.884C209.991 450.874 210.001 450.874 210.011 450.864C210.415 450.672 210.808 450.47 211.212 450.269C211.278 450.239 211.342 450.205 211.404 450.168C211.727 450.006 212.05 449.834 212.363 449.663C212.686 449.491 212.999 449.309 213.302 449.118C213.625 448.946 213.928 448.754 214.241 448.563C213.857 447.805 213.463 447.099 213.06 446.422Z" fill="#CACACA"/>
<path d="M184.047 439.578C182.114 438.674 179.9 438.572 177.891 439.294C175.883 440.017 174.242 441.505 173.327 443.434L171.469 446.241L170.581 447.583L169.229 449.622C169.511 449.774 169.784 449.925 170.066 450.077L170.44 450.269C171.308 450.713 172.186 451.137 173.095 451.53C173.195 451.581 173.307 451.621 173.418 451.672C173.499 451.702 173.579 451.742 173.66 451.773C173.68 451.783 173.69 451.783 173.7 451.793C174.124 451.964 174.548 452.136 174.982 452.298C176.403 452.841 177.852 453.306 179.323 453.691C181.692 454.327 184.109 454.762 186.551 454.993L187.258 452.6L187.944 450.319C188.849 448.378 188.947 446.156 188.217 444.143C187.486 442.129 185.987 440.488 184.047 439.578V439.578Z" fill="#CACACA"/>
<path d="M176.049 407.997C179.439 410.333 183.462 411.576 187.579 411.56C186.11 412.578 184.439 413.266 182.679 413.576C188.152 414.75 193.809 414.782 199.296 413.669C200.516 413.474 201.692 413.07 202.775 412.475C203.314 412.173 203.784 411.762 204.154 411.267C204.524 410.772 204.785 410.205 204.922 409.603C205.286 407.52 203.663 405.628 201.977 404.353C199.395 402.43 196.417 401.105 193.26 400.474C190.103 399.844 186.845 399.922 183.722 400.705C181.642 401.124 179.748 402.194 178.316 403.76C177.623 404.557 177.205 405.556 177.123 406.609C177.041 407.662 177.3 408.714 177.861 409.609L176.049 407.997Z" fill="#2F2E41"/>
<path d="M232.966 395.918C230.833 389.79 227.389 384.2 222.875 379.54C218.36 374.879 212.882 371.259 206.825 368.933C200.767 366.607 194.275 365.63 187.801 366.071C181.327 366.512 175.027 368.359 169.341 371.485C163.654 374.611 158.718 378.94 154.877 384.169C151.035 389.399 148.381 395.403 147.099 401.764C145.816 408.125 145.937 414.689 147.452 420.999C148.968 427.308 151.841 433.211 155.873 438.296C156.266 438.801 156.69 439.306 157.114 439.79C157.138 439.826 157.166 439.86 157.195 439.891C158.24 441.093 159.353 442.236 160.526 443.313C160.829 443.596 161.142 443.889 161.465 444.161C162.07 444.706 162.696 445.221 163.352 445.716C163.605 445.918 163.857 446.12 164.12 446.311C165.139 447.089 166.209 447.805 167.3 448.502C167.318 448.502 167.336 448.509 167.35 448.522C167.663 448.714 167.986 448.906 168.309 449.087C168.612 449.269 168.925 449.451 169.228 449.622C169.51 449.774 169.783 449.925 170.066 450.077L170.439 450.269C171.307 450.713 172.185 451.137 173.094 451.53C173.195 451.581 173.306 451.621 173.417 451.672C173.498 451.702 173.579 451.742 173.659 451.773C173.679 451.783 173.69 451.783 173.7 451.793C174.123 451.964 174.548 452.136 174.982 452.298C176.402 452.841 177.851 453.306 179.323 453.691C181.691 454.327 184.109 454.762 186.55 454.993C187.974 455.124 189.397 455.195 190.831 455.195C192.254 455.195 193.647 455.124 195.04 454.993C195.494 454.953 195.948 454.902 196.403 454.852C199.101 454.511 201.763 453.93 204.357 453.115C204.365 453.114 204.372 453.111 204.378 453.105C206.295 452.498 208.168 451.756 209.98 450.884C209.99 450.874 210 450.874 210.011 450.864C210.414 450.672 210.808 450.47 211.212 450.269C211.278 450.239 211.342 450.205 211.403 450.168C211.726 450.006 212.05 449.834 212.363 449.663C212.686 449.491 212.998 449.309 213.301 449.118C213.625 448.946 213.927 448.754 214.24 448.563C214.402 448.462 214.563 448.361 214.725 448.26C214.947 448.128 215.149 447.997 215.371 447.846C215.674 447.654 215.977 447.442 216.269 447.23C216.663 446.957 217.057 446.675 217.44 446.382C217.569 446.298 217.694 446.207 217.814 446.11C225.31 440.411 230.813 432.487 233.534 423.473C236.256 414.458 236.057 404.813 232.966 395.918L232.966 395.918ZM216.34 444.161C216.077 444.373 215.805 444.575 215.533 444.757C215.26 444.959 214.997 445.151 214.725 445.332C214.493 445.494 214.26 445.655 214.018 445.807C213.996 445.826 213.973 445.843 213.947 445.857C213.776 445.978 213.594 446.089 213.423 446.2C213.301 446.271 213.181 446.352 213.059 446.423C212.706 446.645 212.352 446.857 211.989 447.058C211.797 447.18 211.595 447.291 211.404 447.402C211.333 447.442 211.262 447.482 211.192 447.523C210.879 447.694 210.576 447.846 210.273 448.007C210.233 448.038 210.182 448.048 210.152 448.078C210.133 448.078 210.115 448.086 210.101 448.098C209.718 448.3 209.324 448.492 208.931 448.674C207.415 449.403 205.854 450.034 204.256 450.561C204.055 450.632 203.843 450.713 203.641 450.773C201.066 451.59 198.419 452.158 195.736 452.469C195.434 452.51 195.121 452.54 194.808 452.57C193.496 452.691 192.173 452.752 190.831 452.752C189.639 452.752 188.438 452.701 187.257 452.6C184.788 452.395 182.342 451.969 179.949 451.329C178.127 450.854 176.342 450.246 174.609 449.512C174.517 449.471 174.427 449.441 174.336 449.4C174.235 449.36 174.154 449.33 174.063 449.289C173.962 449.249 173.882 449.209 173.78 449.158C173.124 448.875 172.468 448.563 171.832 448.24C171.741 448.189 171.651 448.149 171.56 448.098L171.207 447.917C170.995 447.805 170.783 447.694 170.581 447.583C169.904 447.22 169.238 446.826 168.592 446.423C168.35 446.271 168.087 446.11 167.845 445.948L167.663 445.827C167.098 445.443 166.533 445.06 165.977 444.646C165.604 444.363 165.22 444.091 164.857 443.798C164.241 443.333 163.645 442.839 163.07 442.324C162.767 442.072 162.464 441.789 162.182 441.527C161.045 440.479 159.97 439.367 158.962 438.195C158.629 437.812 158.295 437.428 157.982 437.024C157.912 436.944 157.851 436.863 157.78 436.772C152.576 430.206 149.445 422.238 148.788 413.886C148.13 405.533 149.975 397.174 154.088 389.874C158.2 382.575 164.394 376.665 171.878 372.9C179.363 369.135 187.799 367.684 196.112 368.733C204.424 369.782 212.236 373.283 218.551 378.789C224.865 384.296 229.397 391.559 231.567 399.651C233.737 407.744 233.448 416.299 230.736 424.226C228.024 432.154 223.012 439.094 216.34 444.161H216.34Z" fill="#3F3D56"/>
<path d="M265.465 177.96C249.931 164.852 230.922 156.542 210.752 154.041C190.581 151.54 170.119 154.955 151.854 163.871C133.589 172.788 118.31 186.82 107.875 204.262C97.4398 221.704 92.2994 241.803 93.0792 262.113C93.8589 282.423 100.525 302.068 112.266 318.659C124.008 335.249 140.318 348.07 159.213 355.559C178.107 363.049 198.772 364.886 218.691 360.845C238.61 356.805 256.926 347.062 271.409 332.802L400.016 441.32C401.974 442.966 404.505 443.768 407.053 443.551C409.602 443.334 411.96 442.115 413.611 440.162C415.263 438.209 416.072 435.681 415.862 433.132C415.653 430.583 414.441 428.221 412.492 426.564L412.478 426.552L283.87 318.034C298.811 296.591 305.205 270.343 301.8 244.432C298.395 218.52 285.437 194.815 265.465 177.96V177.96ZM257.174 307.584C247.155 319.458 233.84 328.094 218.912 332.401C203.985 336.707 188.116 336.49 173.312 331.778C158.507 327.065 145.433 318.069 135.742 305.926C126.051 293.783 120.178 279.039 118.867 263.558C117.555 248.077 120.864 232.555 128.374 218.955C135.884 205.355 147.259 194.287 161.059 187.151C174.859 180.015 190.466 177.132 205.905 178.865C221.344 180.599 235.922 186.872 247.796 196.891V196.891C263.718 210.327 273.651 229.537 275.41 250.296C277.169 271.054 270.609 291.662 257.174 307.584V307.584Z" fill="#3F3D56"/>
<path opacity="0.3" d="M146.481 316.962C131.412 304.245 121.676 286.326 119.207 266.764C116.737 247.201 121.715 227.425 133.152 211.362C131.65 212.875 130.198 214.459 128.796 216.115C122.144 223.999 117.109 233.116 113.98 242.945C110.851 252.775 109.689 263.124 110.56 273.403C111.431 283.682 114.317 293.689 119.055 302.852C123.793 312.015 130.29 320.155 138.174 326.807C146.058 333.46 155.175 338.494 165.004 341.623C174.834 344.752 185.184 345.914 195.462 345.044C205.741 344.173 215.748 341.286 224.911 336.548C234.074 331.81 242.214 325.314 248.867 317.43C250.265 315.772 251.583 314.074 252.818 312.336C238.909 326.312 220.252 334.546 200.553 335.403C180.853 336.26 161.552 329.677 146.481 316.962Z" fill="black"/>
<path d="M524.737 445.378C525.741 444.151 526.465 442.719 526.856 441.183C527.247 439.647 527.297 438.043 527.002 436.486C526.706 434.928 526.073 433.454 525.147 432.168C524.22 430.881 523.023 429.813 521.639 429.04L498.197 333.09L481.096 338.549L506.409 433.844C505.263 436.255 505.042 439.002 505.787 441.566C506.532 444.129 508.191 446.33 510.45 447.751C512.709 449.173 515.411 449.717 518.044 449.279C520.677 448.842 523.059 447.453 524.736 445.378H524.737Z" fill="#FFB6B6"/>
<path d="M512.622 384.004L500.125 394.785L482.641 409.857L474.918 370.347L474.111 366.238L473.475 362.977L491.191 332.118L505.96 332.965L506.969 333.025L506.989 333.248L507.221 335.318L510.25 362.552L510.32 363.21L512.622 384.004Z" fill="#3F3D56"/>
<path d="M430.935 652.196L418.56 652.195L412.672 604.459L430.938 604.46L430.935 652.196Z" fill="#FFB6B6"/>
<path d="M434.091 664.193L394.186 664.191V663.686C394.186 659.567 395.822 655.616 398.735 652.704C401.648 649.791 405.599 648.155 409.718 648.154H409.719L434.092 648.155L434.091 664.193Z" fill="#2F2E41"/>
<path d="M560.148 653.206L547.773 653.205L541.885 605.469L560.151 605.47L560.148 653.206Z" fill="#FFB6B6"/>
<path d="M563.304 665.202L523.398 665.201V664.696C523.399 660.577 525.035 656.626 527.948 653.713C530.861 650.8 534.811 649.164 538.931 649.164H538.932L563.304 649.165L563.304 665.202Z" fill="#2F2E41"/>
<path d="M570.041 634.203L536.728 639.25L488.263 475.231L436.79 640.26L399.439 635.212L447.894 443.412V428.27L454.456 405.557L453.769 399.409L448.994 356.415L446.925 337.77L446.791 336.566C446.679 335.555 446.946 334.539 447.542 333.714C448.138 332.89 449.019 332.317 450.014 332.107V332.107L465.56 328.836H490.969L505.959 332.965L506.989 333.248L507.453 333.379L507.221 335.317L503.708 364.774L503.517 366.389L500.125 394.785L499.378 401.014C528.652 422.213 529.662 443.412 529.662 443.412L570.041 634.203Z" fill="#2F2E41"/>
<path d="M475.192 316.065C488.885 316.065 499.986 304.964 499.986 291.271C499.986 277.578 488.885 266.477 475.192 266.477C461.499 266.477 450.398 277.578 450.398 291.271C450.398 304.964 461.499 316.065 475.192 316.065Z" fill="#FFB6B6"/>
<path d="M501.234 395.316L452.188 401.73L453.104 408.737L502.151 402.323L501.234 395.316Z" fill="#3F3D56"/>
<path d="M386.398 403.843C386.867 404.146 387.312 404.486 387.727 404.859L436.239 392.493L439.548 380.789L457.863 383.475L454.018 404.763C453.708 406.483 452.847 408.055 451.567 409.245C450.287 410.434 448.655 411.176 446.917 411.359L390.274 417.324C389.351 419.268 387.858 420.884 385.993 421.959C384.129 423.033 381.981 423.515 379.837 423.339C377.692 423.163 375.652 422.339 373.987 420.975C372.322 419.612 371.112 417.774 370.518 415.706C369.923 413.637 369.973 411.437 370.659 409.398C371.345 407.358 372.636 405.576 374.36 404.288C376.084 403.001 378.159 402.268 380.31 402.189C382.46 402.109 384.584 402.686 386.398 403.843V403.843Z" fill="#FFB6B6"/>
<path d="M461.017 338.426L452.436 331.865C450.116 330.985 446.937 333.485 446.379 335.903L434.266 385.367L459.503 403.537L463.036 397.985L461.017 338.426Z" fill="#3F3D56"/>
<g opacity="0.2">
<path opacity="0.2" d="M510.249 362.553C508.107 363.403 505.924 364.144 503.707 364.774C503 364.986 502.274 365.188 501.557 365.379C496.832 366.69 491.978 367.476 487.081 367.721C484.973 367.811 482.862 367.753 480.762 367.55C478.508 367.325 476.28 366.886 474.109 366.237C474.038 366.217 473.958 366.197 473.887 366.177C469.373 364.895 465.235 362.544 461.824 359.323C461.062 358.58 460.35 357.788 459.694 356.95C457.809 354.642 456.426 351.965 455.633 349.092C454.841 346.219 454.656 343.212 455.091 340.264C455.175 339.729 455.29 339.2 455.434 338.679C455.814 337.258 456.318 335.873 456.938 334.54C457.211 333.914 457.514 333.298 457.837 332.693L469.243 328.836H490.967L505.958 332.965L506.968 333.026L506.988 333.248L507.452 333.379L507.22 335.317L510.249 362.553Z" fill="black"/>
</g>
<path d="M456.194 270.744C451.557 270.176 446.468 270.578 442.854 273.538C439.24 276.498 438.074 282.651 441.496 285.832C444.525 288.647 449.262 287.985 453.319 288.786C456.815 289.569 459.946 291.502 462.213 294.276C464.479 297.05 465.749 300.504 465.82 304.086C465.76 314.356 455.903 322.134 454.133 332.251C452.924 339.156 455.836 346.422 460.871 351.3C465.905 356.177 472.826 358.813 479.799 359.527C486.773 360.241 493.824 359.15 500.6 357.359C507.405 355.56 514.105 353.007 519.815 348.891C525.525 344.775 530.206 338.972 532.039 332.176C533.872 325.38 532.556 317.589 527.832 312.371C522.422 306.396 513.422 304.341 508.743 297.778C503.497 290.421 505.438 279.944 501.193 271.968C498.358 266.643 492.991 263.011 487.27 261.098C481.549 259.184 475.44 258.807 469.41 258.622C466.241 258.524 462.975 258.492 460.022 259.647C457.069 260.803 454.473 263.436 454.32 266.603C454.167 269.77 456.194 270.744 456.194 270.744Z" fill="#2F2E41"/>
<path d="M688.311 665.61H303.701C303.433 665.61 303.176 665.504 302.987 665.314C302.798 665.125 302.691 664.868 302.691 664.601C302.691 664.333 302.798 664.076 302.987 663.887C303.176 663.697 303.433 663.591 303.701 663.591H688.311C688.579 663.591 688.836 663.697 689.025 663.887C689.214 664.076 689.321 664.333 689.321 664.601C689.321 664.868 689.214 665.125 689.025 665.314C688.836 665.504 688.579 665.61 688.311 665.61Z" fill="#CACACA"/>
</g>
<defs>
<clipPath id="clip0_74:1152">
<rect width="596.322" height="665.61" fill="white" transform="translate(93)"/>
</clipPath>
</defs>
</svg>
